<svg version="1.1" id="Layer_1" xmlns="http://www.w3.org/2000/svg" xmlns:xlink="http://www.w3.org/1999/xlink" x="0px" y="0px"
	 width="100%" viewBox="0 0 200 200" enable-background="new 0 0 200 200" xml:space="preserve">
<path fill="#13182D" opacity="1.000000" stroke="none" 
	d="
M100.000000,201.000000 
	C66.687195,201.000000 33.874397,201.000000 1.030797,201.000000 
	C1.030797,134.395569 1.030797,67.791107 1.030797,1.093328 
	C67.562645,1.093328 134.125458,1.093328 200.844147,1.093328 
	C200.844147,67.666382 200.844147,134.333145 200.844147,201.000000 
	C167.458054,201.000000 133.979034,201.000000 100.000000,201.000000 
M116.017822,65.513420 
	C111.551987,84.698845 107.086159,103.884277 102.620323,123.069702 
	C102.291542,123.090973 101.962769,123.112236 101.633987,123.133507 
	C97.012756,95.065247 92.391525,66.996994 87.726410,38.662159 
	C83.839256,39.356808 80.493309,39.954742 76.986488,40.581425 
	C81.826141,70.251350 86.584404,99.422287 91.342667,128.593231 
	C90.982353,128.684906 90.622040,128.776596 90.261726,128.868271 
	C76.985596,105.575096 63.709461,82.281929 50.338505,58.822384 
	C46.893291,60.813251 43.915737,62.533875 40.855515,64.302269 
	C58.589367,95.427185 76.110786,126.197029 93.652641,156.955231 
	C98.276405,165.062607 104.247002,165.135406 108.859909,157.126358 
	C122.633934,133.211624 136.375504,109.278198 150.127441,85.350739 
	C153.678055,79.172913 157.220184,72.990211 160.880981,66.609711 
	C157.602631,64.729408 154.626724,63.022564 151.427017,61.187366 
	C139.007568,82.720703 126.756516,103.962082 114.505455,125.203461 
	C114.212189,125.023956 113.918915,124.844444 113.625648,124.664932 
	C117.918587,105.664017 122.211517,86.663101 126.547737,67.470627 
	C122.840889,66.602242 119.790222,65.887581 116.017822,65.513420 
z"/>
<path fill="#FAFAFB" opacity="1.000000" stroke="none" 
	d="
M116.378693,65.343170 
	C119.790222,65.887581 122.840889,66.602242 126.547737,67.470627 
	C122.211517,86.663101 117.918587,105.664017 113.625648,124.664932 
	C113.918915,124.844444 114.212189,125.023956 114.505455,125.203461 
	C126.756516,103.962082 139.007568,82.720703 151.427017,61.187366 
	C154.626724,63.022564 157.602631,64.729408 160.880981,66.609711 
	C157.220184,72.990211 153.678055,79.172913 150.127441,85.350739 
	C136.375504,109.278198 122.633934,133.211624 108.859909,157.126358 
	C104.247002,165.135406 98.276405,165.062607 93.652641,156.955231 
	C76.110786,126.197029 58.589367,95.427185 40.855515,64.302269 
	C43.915737,62.533875 46.893291,60.813251 50.338505,58.822384 
	C63.709461,82.281929 76.985596,105.575096 90.261726,128.868271 
	C90.622040,128.776596 90.982353,128.684906 91.342667,128.593231 
	C86.584404,99.422287 81.826141,70.251350 76.986488,40.581425 
	C80.493309,39.954742 83.839256,39.356808 87.726410,38.662159 
	C92.391525,66.996994 97.012756,95.065247 101.633987,123.133507 
	C101.962769,123.112236 102.291542,123.090973 102.620323,123.069702 
	C107.086159,103.884277 111.551987,84.698845 116.378693,65.343170 
z"/>
</svg>