<svg version="1.1" id="Layer_1" xmlns="http://www.w3.org/2000/svg" xmlns:xlink="http://www.w3.org/1999/xlink" x="0px" y="0px"
	 width="100%" viewBox="0 0 8000 8000" enable-background="new 0 0 8000 8000" xml:space="preserve">
<path fill="#000000" opacity="1.000000" stroke="none" 
	d="
M3716.000000,8004.000000 
	C2477.333252,8004.000000 1240.666626,8004.000000 4.000000,8004.000000 
	C4.000000,5337.333496 4.000000,2670.666748 4.000000,4.000001 
	C2670.666748,4.000000 5337.333496,4.000000 8004.000000,4.000000 
	C8004.000000,2670.666748 8004.000000,5337.333496 8004.000000,8004.000000 
	C6575.333496,8004.000000 5146.666504,8004.000000 3716.000000,8004.000000 
M2406.189697,5607.792480 
	C2450.028564,5632.181641 2496.130371,5650.970703 2544.572510,5664.079590 
	C2601.574707,5679.504395 2659.613281,5685.330566 2718.590332,5685.317871 
	C3571.237061,5685.136230 4423.883789,5685.193359 5276.530273,5685.192871 
	C5281.863281,5685.192871 5287.196777,5685.207520 5292.529785,5685.175781 
	C5326.571777,5684.971191 5360.362793,5682.388672 5393.999512,5676.694336 
	C5509.269531,5657.180664 5611.204590,5609.287109 5698.099609,5531.312500 
	C5817.531738,5424.141602 5886.935059,5290.458984 5904.954590,5130.586914 
	C5911.575195,5071.848633 5908.875488,5013.487305 5897.881348,4955.476074 
	C5884.354492,4884.101074 5858.019531,4817.655762 5821.752441,4754.806641 
	C5310.134277,3868.188965 4798.646484,2981.496094 4287.112305,2094.829590 
	C4267.809082,2061.370117 4248.788574,2027.737061 4228.891113,1994.632690 
	C4171.769043,1899.594116 4063.705078,1850.638794 3953.214111,1869.340332 
	C3871.030029,1883.250610 3808.392578,1927.410278 3765.423096,1999.004028 
	C3756.171143,2014.419434 3747.472900,2030.166748 3738.485352,2045.741333 
	C3266.466309,2863.706543 2794.443604,3681.669434 2322.422119,4499.632812 
	C2271.824951,4587.312988 2220.580566,4674.627441 2170.788086,4762.762207 
	C2085.652832,4913.454590 2064.639404,5072.933594 2113.723877,5239.166016 
	C2161.088379,5399.573242 2258.847900,5521.977051 2406.189697,5607.792480 
z"/>
<path fill="#FEFEFE" opacity="1.000000" stroke="none" 
	d="
M2404.914062,5607.075195 
	C2258.847900,5521.977051 2161.088379,5399.573242 2113.723877,5239.166016 
	C2064.639404,5072.933594 2085.652832,4913.454590 2170.788086,4762.762207 
	C2220.580566,4674.627441 2271.824951,4587.312988 2322.422119,4499.632812 
	C2794.443604,3681.669434 3266.466309,2863.706543 3738.485352,2045.741333 
	C3747.472900,2030.166748 3756.171143,2014.419434 3765.423096,1999.004028 
	C3808.392578,1927.410278 3871.030029,1883.250610 3953.214111,1869.340332 
	C4063.705078,1850.638794 4171.769043,1899.594116 4228.891113,1994.632690 
	C4248.788574,2027.737061 4267.809082,2061.370117 4287.112305,2094.829590 
	C4798.646484,2981.496094 5310.134277,3868.188965 5821.752441,4754.806641 
	C5858.019531,4817.655762 5884.354492,4884.101074 5897.881348,4955.476074 
	C5908.875488,5013.487305 5911.575195,5071.848633 5904.954590,5130.586914 
	C5886.935059,5290.458984 5817.531738,5424.141602 5698.099609,5531.312500 
	C5611.204590,5609.287109 5509.269531,5657.180664 5393.999512,5676.694336 
	C5360.362793,5682.388672 5326.571777,5684.971191 5292.529785,5685.175781 
	C5287.196777,5685.207520 5281.863281,5685.192871 5276.530273,5685.192871 
	C4423.883789,5685.193359 3571.237061,5685.136230 2718.590332,5685.317871 
	C2659.613281,5685.330566 2601.574707,5679.504395 2544.572510,5664.079590 
	C2496.130371,5650.970703 2450.028564,5632.181641 2404.914062,5607.075195 
M2910.820801,4404.729980 
	C2801.366943,4600.627930 2691.911865,4796.525391 2582.466064,4992.427734 
	C2580.194092,4996.493652 2577.896240,5000.553223 2575.832031,5004.725586 
	C2534.678711,5087.922363 2583.068848,5184.822266 2666.191650,5208.370117 
	C2683.031006,5213.140625 2700.174561,5214.667480 2717.572021,5214.666504 
	C3058.859375,5214.645508 3400.146973,5214.649902 3741.434326,5214.650391 
	C3744.767334,5214.650391 3748.120605,5214.878418 3751.427734,5214.585449 
	C3755.240967,5214.248047 3759.013672,5213.450684 3763.460449,5212.750000 
	C3763.460449,4420.718750 3763.460693,3629.542480 3763.437256,2838.366211 
	C3763.437256,2837.794922 3763.241943,2837.009277 3762.845947,2836.708496 
	C3762.369385,2836.346680 3761.579590,2836.396729 3759.885742,2836.064697 
	C3756.943115,2841.525146 3753.761963,2847.225098 3750.764160,2853.020020 
	C3671.232666,3006.753662 3591.740479,3160.507568 3512.194824,3314.233887 
	C3479.153809,3378.087646 3447.567139,3442.753906 3412.642578,3505.562988 
	C3246.314697,3804.691406 3079.065430,4103.307617 2910.820801,4404.729980 
M4234.437500,3385.998779 
	C4234.437500,3985.919922 4234.437500,4585.840820 4234.437500,5185.762207 
	C4234.437500,5191.094727 4234.240234,5196.437988 4234.510254,5201.756836 
	C4234.700684,5205.512207 4235.528320,5209.234863 4236.258301,5214.256348 
	C4243.118652,5214.256348 4249.020508,5214.256348 4254.922363,5214.256348 
	C4596.210938,5214.256348 4937.499512,5214.270020 5278.788086,5214.188477 
	C5288.763184,5214.186035 5298.789062,5213.636719 5308.705078,5212.552246 
	C5378.112793,5204.959961 5433.525879,5145.059570 5436.530273,5075.370605 
	C5437.899902,5043.609375 5428.550293,5015.362305 5413.203125,4987.943359 
	C5167.983398,4549.825195 4923.015137,4111.566406 4678.036621,3673.312500 
	C4643.272949,3611.121826 4607.452148,3549.476318 4574.395996,3486.385986 
	C4498.083008,3340.737793 4423.166992,3194.357422 4347.684570,3048.273682 
	C4313.151367,2981.439697 4278.662109,2914.582520 4243.973633,2847.829346 
	C4242.104980,2844.233154 4242.063477,2838.416992 4234.437500,2838.259033 
	C4234.437500,3019.589600 4234.437500,3200.794189 4234.437500,3385.998779 
z"/>
<path fill="#010101" opacity="1.000000" stroke="none" 
	d="
M2911.482422,4403.417969 
	C3079.065430,4103.307617 3246.314697,3804.691406 3412.642578,3505.562988 
	C3447.567139,3442.753906 3479.153809,3378.087646 3512.194824,3314.233887 
	C3591.740479,3160.507568 3671.232666,3006.753662 3750.764160,2853.020020 
	C3753.761963,2847.225098 3756.943115,2841.525146 3759.885742,2836.064697 
	C3761.579590,2836.396729 3762.369385,2836.346680 3762.845947,2836.708496 
	C3763.241943,2837.009277 3763.437256,2837.794922 3763.437256,2838.366211 
	C3763.460693,3629.542480 3763.460449,4420.718750 3763.460449,5212.750000 
	C3759.013672,5213.450684 3755.240967,5214.248047 3751.427734,5214.585449 
	C3748.120605,5214.878418 3744.767334,5214.650391 3741.434326,5214.650391 
	C3400.146973,5214.649902 3058.859375,5214.645508 2717.572021,5214.666504 
	C2700.174561,5214.667480 2683.031006,5213.140625 2666.191650,5208.370117 
	C2583.068848,5184.822266 2534.678711,5087.922363 2575.832031,5004.725586 
	C2577.896240,5000.553223 2580.194092,4996.493652 2582.466064,4992.427734 
	C2691.911865,4796.525391 2801.366943,4600.627930 2911.482422,4403.417969 
z"/>
<path fill="#010101" opacity="1.000000" stroke="none" 
	d="
M4234.437500,3383.998535 
	C4234.437500,3200.794189 4234.437500,3019.589600 4234.437500,2838.259033 
	C4242.063477,2838.416992 4242.104980,2844.233154 4243.973633,2847.829346 
	C4278.662109,2914.582520 4313.151367,2981.439697 4347.684570,3048.273682 
	C4423.166992,3194.357422 4498.083008,3340.737793 4574.395996,3486.385986 
	C4607.452148,3549.476318 4643.272949,3611.121826 4678.036621,3673.312500 
	C4923.015137,4111.566406 5167.983398,4549.825195 5413.203125,4987.943359 
	C5428.550293,5015.362305 5437.899902,5043.609375 5436.530273,5075.370605 
	C5433.525879,5145.059570 5378.112793,5204.959961 5308.705078,5212.552246 
	C5298.789062,5213.636719 5288.763184,5214.186035 5278.788086,5214.188477 
	C4937.499512,5214.270020 4596.210938,5214.256348 4254.922363,5214.256348 
	C4249.020508,5214.256348 4243.118652,5214.256348 4236.258301,5214.256348 
	C4235.528320,5209.234863 4234.700684,5205.512207 4234.510254,5201.756836 
	C4234.240234,5196.437988 4234.437500,5191.094727 4234.437500,5185.762207 
	C4234.437500,4585.840820 4234.437500,3985.919922 4234.437500,3383.998535 
z"/>
</svg>